<?xml version="1.0" encoding="UTF-8" standalone="no"?>
<!-- Created with Inkscape (http://www.inkscape.org/) -->
<svg
   xmlns:dc="http://purl.org/dc/elements/1.1/"
   xmlns:cc="http://creativecommons.org/ns#"
   xmlns:rdf="http://www.w3.org/1999/02/22-rdf-syntax-ns#"
   xmlns:svg="http://www.w3.org/2000/svg"
   xmlns="http://www.w3.org/2000/svg"
   xmlns:xlink="http://www.w3.org/1999/xlink"
   xmlns:sodipodi="http://sodipodi.sourceforge.net/DTD/sodipodi-0.dtd"
   xmlns:inkscape="http://www.inkscape.org/namespaces/inkscape"
   width="48.000000px"
   height="48.000000px"
   id="svg53383"
   sodipodi:version="0.32"
   inkscape:version="0.46"
   sodipodi:docbase="/home/jimmac/src/cvs/tango-icon-theme/scalable/categories"
   sodipodi:docname="indicator-medium.svg"
   inkscape:output_extension="org.inkscape.output.svg.inkscape">
  <defs
     id="defs3">
    <linearGradient
       id="linearGradient7916">
      <stop
         style="stop-color:#ffffff;stop-opacity:1;"
         offset="0"
         id="stop7918" />
      <stop
         style="stop-color:#ffffff;stop-opacity:0.34020618;"
         offset="1.0000000"
         id="stop7920" />
    </linearGradient>
    <linearGradient
       inkscape:collect="always"
       xlink:href="#linearGradient7916"
       id="linearGradient7922"
       x1="16.874998"
       y1="22.851799"
       x2="27.900846"
       y2="34.976799"
       gradientUnits="userSpaceOnUse"
       gradientTransform="matrix(0.7154063,0,0,0.752099,18.626635,14.749159)" />
    <inkscape:perspective
       sodipodi:type="inkscape:persp3d"
       inkscape:vp_x="0 : 24 : 1"
       inkscape:vp_y="0 : 1000 : 0"
       inkscape:vp_z="48 : 24 : 1"
       inkscape:persp3d-origin="24 : 16 : 1"
       id="perspective17409" />
    <linearGradient
       id="linearGradient3264">
      <stop
         style="stop-color:#c9c9c9;stop-opacity:1;"
         offset="0"
         id="stop3266" />
      <stop
         id="stop3276"
         offset="0.25"
         style="stop-color:#f8f8f8;stop-opacity:1;" />
      <stop
         id="stop3272"
         offset="0.5"
         style="stop-color:#e2e2e2;stop-opacity:1;" />
      <stop
         style="stop-color:#b0b0b0;stop-opacity:1;"
         offset="0.75"
         id="stop3274" />
      <stop
         style="stop-color:#c9c9c9;stop-opacity:1;"
         offset="1"
         id="stop3268" />
    </linearGradient>
    <linearGradient
       inkscape:collect="always"
       xlink:href="#linearGradient3264"
       id="linearGradient3281"
       gradientUnits="userSpaceOnUse"
       x1="14.462892"
       y1="12.284524"
       x2="34.534348"
       y2="39.684914"
       gradientTransform="matrix(1.241935,0,0,1.241935,-5.027508,-7.208988)" />
    <linearGradient
       id="linearGradient2300">
      <stop
         id="stop2302"
         offset="0.0000000"
         style="stop-color:#000000;stop-opacity:0.32673267;" />
      <stop
         id="stop2304"
         offset="1"
         style="stop-color:#000000;stop-opacity:0;" />
    </linearGradient>
    <linearGradient
       id="aigrd1"
       gradientUnits="userSpaceOnUse"
       x1="99.7773"
       y1="15.4238"
       x2="153.0005"
       y2="248.6311">
      <stop
         offset="0"
         style="stop-color:#184375"
         id="stop53300" />
      <stop
         offset="1"
         style="stop-color:#C8BDDC"
         id="stop53302" />
    </linearGradient>
    <linearGradient
       inkscape:collect="always"
       xlink:href="#aigrd1"
       id="linearGradient53551"
       gradientUnits="userSpaceOnUse"
       x1="99.7773"
       y1="15.4238"
       x2="153.0005"
       y2="248.6311"
       gradientTransform="matrix(0.200685,0.000000,0.000000,0.200685,-0.585758,-1.050787)" />
    <linearGradient
       inkscape:collect="always"
       xlink:href="#linearGradient3264"
       id="linearGradient3760"
       gradientUnits="userSpaceOnUse"
       gradientTransform="matrix(1.241935,0,0,1.241935,-5.027508,-7.208988)"
       x1="14.462892"
       y1="12.284524"
       x2="34.534348"
       y2="39.684914" />
    <linearGradient
       inkscape:collect="always"
       xlink:href="#aigrd1"
       id="linearGradient3773"
       gradientUnits="userSpaceOnUse"
       gradientTransform="matrix(0.1860719,-7.5177924e-2,7.5177924e-2,0.1860719,-57.790799,30.026065)"
       x1="99.7773"
       y1="15.4238"
       x2="153.0005"
       y2="248.6311" />
  </defs>
  <sodipodi:namedview
     inkscape:showpageshadow="false"
     id="base"
     pagecolor="#ffffff"
     bordercolor="#666666"
     borderopacity="0.11764706"
     inkscape:pageopacity="0.0"
     inkscape:pageshadow="2"
     inkscape:zoom="5.6568542"
     inkscape:cx="43.652227"
     inkscape:cy="21.164787"
     inkscape:current-layer="layer2"
     showgrid="false"
     inkscape:grid-bbox="true"
     inkscape:document-units="px"
     inkscape:window-width="872"
     inkscape:window-height="719"
     inkscape:window-x="404"
     inkscape:window-y="77" />
  <metadata
     id="metadata4">
    <rdf:RDF>
      <cc:Work
         rdf:about="">
        <dc:format>image/svg+xml</dc:format>
        <dc:type
           rdf:resource="http://purl.org/dc/dcmitype/StillImage" />
        <dc:title>System Applications</dc:title>
        <dc:creator>
          <cc:Agent>
            <dc:title>Jakub Steiner</dc:title>
          </cc:Agent>
        </dc:creator>
        <dc:source>http://jimmac.musichall.cz/</dc:source>
        <dc:subject>
          <rdf:Bag>
            <rdf:li>system</rdf:li>
            <rdf:li>applications</rdf:li>
            <rdf:li>group</rdf:li>
            <rdf:li>category</rdf:li>
            <rdf:li>admin</rdf:li>
            <rdf:li>root</rdf:li>
          </rdf:Bag>
        </dc:subject>
        <cc:license
           rdf:resource="http://creativecommons.org/licenses/by/2.0/" />
      </cc:Work>
      <cc:License
         rdf:about="http://creativecommons.org/licenses/by/2.0/">
        <cc:permits
           rdf:resource="http://web.resource.org/cc/Reproduction" />
        <cc:permits
           rdf:resource="http://web.resource.org/cc/Distribution" />
        <cc:requires
           rdf:resource="http://web.resource.org/cc/Notice" />
        <cc:requires
           rdf:resource="http://web.resource.org/cc/Attribution" />
        <cc:permits
           rdf:resource="http://web.resource.org/cc/DerivativeWorks" />
        <cc:requires
           rdf:resource="http://web.resource.org/cc/ShareAlike" />
      </cc:License>
    </rdf:RDF>
  </metadata>
  <g
     inkscape:label="shadow"
     id="layer2"
     inkscape:groupmode="layer" />
  <g
     id="layer1"
     inkscape:label="Layer 1"
     inkscape:groupmode="layer">
    <path
       inkscape:r_cy="true"
       inkscape:r_cx="true"
       style="opacity:1;fill:url(#linearGradient3773);fill-opacity:1;fill-rule:nonzero;stroke:#3f4561;stroke-width:1;stroke-linecap:round;stroke-linejoin:round;marker:none;marker-start:none;marker-mid:none;marker-end:none;stroke-miterlimit:4;stroke-dasharray:none;stroke-dashoffset:0;stroke-opacity:1;visibility:visible;display:inline;overflow:visible"
       d="M 14.383633,3.0208903 C 13.957041,3.2281629 13.558071,3.4683994 13.147072,3.6918152 L 13.117616,3.7037164 L 14.359748,9.7463578 C 12.833977,10.807961 11.515468,12.096136 10.449802,13.553263 L 4.4803877,12.093189 C 3.6223758,13.568863 2.9420935,15.160458 2.437756,16.79034 L 7.5407274,20.176641 C 7.1677774,22.060294 7.1219815,24.057589 7.4311639,26.011587 C 7.4345064,26.020064 7.4424124,26.039594 7.4430647,26.041043 L 2.2034456,29.185918 C 2.4387831,30.062993 2.7427831,30.944862 3.0915539,31.8081 C 3.3769116,32.514385 3.6779584,33.203355 4.0248939,33.863776 L 10.026179,32.604088 C 11.209452,34.386797 12.69892,35.896379 14.401368,37.072513 L 12.917492,42.983017 C 14.348904,43.781314 15.884772,44.414143 17.454868,44.884614 L 20.858725,39.740285 C 22.930364,40.125532 25.066715,40.119445 27.206324,39.676989 L 30.339298,44.887151 C 30.990331,44.690605 31.634988,44.432187 32.277744,44.172497 C 33.185164,43.805875 34.038035,43.421292 34.869283,42.954125 L 33.632805,36.840671 C 35.334855,35.605206 36.782436,34.070055 37.882544,32.348251 L 43.751689,33.814573 C 44.523705,32.338439 45.134649,30.753417 45.564326,29.141816 L 40.337284,25.70285 C 40.607304,23.79886 40.538537,21.846272 40.116583,19.898546 L 45.326747,16.765572 C 45.140846,16.164882 44.923294,15.59738 44.683498,15.003863 C 44.266786,13.972464 43.738322,13.009618 43.192589,12.076999 L 37.120492,13.331032 C 36.01608,11.873544 34.671984,10.640463 33.196356,9.6397722 L 34.680232,3.7292696 C 33.138709,2.8843562 31.490854,2.1942788 29.794443,1.7285888 L 26.326021,6.9675324 C 24.616329,6.7089367 22.878299,6.682719 21.122739,6.9796679 L 17.977864,1.7400485 C 17.135324,1.9703994 16.303111,2.2453708 15.473507,2.5805527 C 15.24929,2.6711423 15.015682,2.7573194 14.796018,2.8542762 C 14.688931,2.9015426 14.577646,2.9351632 14.472001,2.9851873 C 14.443388,2.9987359 14.412073,3.0070722 14.383633,3.0208903 z M 20.933385,17.027105 C 21.038791,16.978167 21.14844,16.940217 21.257402,16.896194 C 24.744175,15.487446 28.740424,17.183753 30.149172,20.670526 C 31.55792,24.157298 29.84971,28.124093 26.362938,29.53284 C 22.876166,30.941588 18.921273,29.262835 17.512526,25.776063 C 16.147803,22.398252 17.665799,18.544211 20.933385,17.027105 z"
       id="path3243" />
    <path
       inkscape:r_cy="true"
       inkscape:r_cx="true"
       sodipodi:type="arc"
       style="opacity:0.64772728;fill:none;fill-opacity:1;fill-rule:nonzero;stroke:#ffffff;stroke-width:1.62180054;stroke-linecap:butt;stroke-linejoin:miter;marker:none;marker-start:none;marker-mid:none;marker-end:none;stroke-miterlimit:4;stroke-dasharray:none;stroke-dashoffset:0;stroke-opacity:1;visibility:visible;display:inline;overflow:visible"
       id="path3283"
       sodipodi:cx="23.511301"
       sodipodi:cy="23.781593"
       sodipodi:rx="12.727922"
       sodipodi:ry="12.727922"
       d="M 36.239223,23.781593 A 12.727922,12.727922 0 1 1 10.783379,23.781593 A 12.727922,12.727922 0 1 1 36.239223,23.781593 z"
       transform="matrix(0.5716997,-0.2309817,0.2309817,0.5716997,4.8799473,15.049085)" />
    <path
       inkscape:r_cy="true"
       inkscape:r_cx="true"
       id="path3285"
       d="M 14.18106,4.3980528 L 15.55412,10.179754 C 14.123972,11.174824 11.669935,13.442451 10.671055,14.808259 L 4.9391925,13.30052 C 4.1349533,14.683711 4.0795197,14.777873 3.6067898,16.305608 L 8.6988744,19.741486 C 8.3492992,21.507087 8.2571644,24.439003 8.5815705,26.376508 C 8.5815705,26.376508 3.3819831,29.57137 3.3819831,29.57137 C 3.6025715,30.393478 4.3260635,32.051476 4.6512559,32.670507 L 10.368821,31.477302 C 11.477937,33.148284 14.058861,35.516521 15.654613,36.618945 L 14.083368,42.433495 C 15.42507,43.181762 15.64491,43.211017 17.116605,43.652002 L 20.289316,38.529442 C 22.231122,38.890544 25.779652,38.850478 27.785168,38.435751 L 30.697935,43.515596 C 31.308167,43.331368 32.994909,42.824701 33.774062,42.386814 L 32.339632,36.45322 C 33.935011,35.295184 36.49149,32.798887 37.522651,31.184991 L 43.33871,32.618823 C 44.062343,31.235204 44.015111,31.089857 44.417859,29.579258 L 39.165978,26.185193 C 39.419076,24.400529 39.359096,21.134477 38.963588,19.308819 L 44.059424,16.195761 C 43.88517,15.632719 43.27385,14.113235 42.76232,13.239065 L 36.809546,14.5273 C 35.774348,13.161156 33.231871,10.972937 31.848725,10.034962 L 33.586599,4.1530913 C 32.141689,3.3611288 31.716553,3.3441321 30.126459,2.9076281 L 26.815708,8.1258457 C 25.213164,7.8834587 22.162725,7.7594036 20.51719,8.037742 L 17.540914,3.0405834 C 16.751178,3.2564976 14.591984,4.1746776 14.18106,4.3980528 z"
       style="opacity:0.34659089;fill:none;fill-opacity:1;fill-rule:nonzero;stroke:#ffffff;stroke-width:0.99999923;stroke-linecap:butt;stroke-linejoin:miter;marker:none;marker-start:none;marker-mid:none;marker-end:none;stroke-miterlimit:4;stroke-dasharray:none;stroke-dashoffset:0;stroke-opacity:1;visibility:visible;display:inline;overflow:visible"
       sodipodi:nodetypes="ccccccccccccccccccccccccccccccccc" />
  </g>
</svg>
