<?xml version="1.0" encoding="UTF-8" standalone="no"?>
<!-- Created with Inkscape (http://www.inkscape.org/) -->
<svg
   xmlns:dc="http://purl.org/dc/elements/1.1/"
   xmlns:cc="http://creativecommons.org/ns#"
   xmlns:rdf="http://www.w3.org/1999/02/22-rdf-syntax-ns#"
   xmlns:svg="http://www.w3.org/2000/svg"
   xmlns="http://www.w3.org/2000/svg"
   xmlns:xlink="http://www.w3.org/1999/xlink"
   xmlns:sodipodi="http://sodipodi.sourceforge.net/DTD/sodipodi-0.dtd"
   xmlns:inkscape="http://www.inkscape.org/namespaces/inkscape"
   width="48"
   height="48"
   id="svg2"
   sodipodi:version="0.32"
   inkscape:version="0.46"
   version="1.0"
   sodipodi:docname="promptForPrivateKeyPassphrase.svg"
   inkscape:output_extension="org.inkscape.output.svg.inkscape">
  <defs
     id="defs4">
    <linearGradient
       inkscape:collect="always"
       id="linearGradient3201">
      <stop
         style="stop-color:#000000;stop-opacity:1;"
         offset="0"
         id="stop3203" />
      <stop
         style="stop-color:#000000;stop-opacity:0;"
         offset="1"
         id="stop3205" />
    </linearGradient>
    <radialGradient
       inkscape:collect="always"
       xlink:href="#linearGradient3201"
       id="radialGradient3207"
       cx="26.617519"
       cy="37.443905"
       fx="26.617519"
       fy="37.443905"
       r="18.031223"
       gradientTransform="matrix(1,0,0,0.282913,0,26.85053)"
       gradientUnits="userSpaceOnUse" />
    <linearGradient
       id="linearGradient3191">
      <stop
         style="stop-color:#eeeeec;stop-opacity:1;"
         offset="0"
         id="stop3193" />
      <stop
         style="stop-color:#d6d6d1;stop-opacity:1;"
         offset="1"
         id="stop3195" />
    </linearGradient>
    <inkscape:perspective
       sodipodi:type="inkscape:persp3d"
       inkscape:vp_x="0 : 24 : 1"
       inkscape:vp_y="0 : 1000 : 0"
       inkscape:vp_z="48 : 24 : 1"
       inkscape:persp3d-origin="24 : 16 : 1"
       id="perspective84" />
    <linearGradient
       inkscape:collect="always"
       id="linearGradient7614">
      <stop
         style="stop-color:#babdb6;stop-opacity:1"
         offset="0"
         id="stop7616" />
      <stop
         id="stop7628"
         offset="0.4873454"
         style="stop-color:#ffffff;stop-opacity:1" />
      <stop
         style="stop-color:#d3d7cf;stop-opacity:1"
         offset="1"
         id="stop7618" />
    </linearGradient>
    <linearGradient
       inkscape:collect="always"
       id="linearGradient7604">
      <stop
         style="stop-color:#000000;stop-opacity:1;"
         offset="0"
         id="stop7606" />
      <stop
         style="stop-color:#000000;stop-opacity:0;"
         offset="1"
         id="stop7608" />
    </linearGradient>
    <linearGradient
       inkscape:collect="always"
       id="linearGradient7592">
      <stop
         style="stop-color:#ffffff;stop-opacity:1;"
         offset="0"
         id="stop7594" />
      <stop
         style="stop-color:#ffffff;stop-opacity:0;"
         offset="1"
         id="stop7596" />
    </linearGradient>
    <linearGradient
       inkscape:collect="always"
       id="linearGradient7582">
      <stop
         style="stop-color:#ffffff;stop-opacity:1;"
         offset="0"
         id="stop7584" />
      <stop
         style="stop-color:#ffffff;stop-opacity:0;"
         offset="1"
         id="stop7586" />
    </linearGradient>
    <linearGradient
       inkscape:collect="always"
       id="linearGradient7567">
      <stop
         style="stop-color:#000000;stop-opacity:1;"
         offset="0"
         id="stop7569" />
      <stop
         style="stop-color:#000000;stop-opacity:0;"
         offset="1"
         id="stop7571" />
    </linearGradient>
    <linearGradient
       inkscape:collect="always"
       id="linearGradient7557">
      <stop
         style="stop-color:#eeeeec;stop-opacity:1"
         offset="0"
         id="stop7559" />
      <stop
         style="stop-color:#eeeeec;stop-opacity:1"
         offset="1"
         id="stop7561" />
    </linearGradient>
    <linearGradient
       inkscape:collect="always"
       id="linearGradient7549">
      <stop
         style="stop-color:#ffffff;stop-opacity:1"
         offset="0"
         id="stop7551" />
      <stop
         style="stop-color:#eeeeec;stop-opacity:1"
         offset="1"
         id="stop7553" />
    </linearGradient>
    <linearGradient
       inkscape:collect="always"
       id="linearGradient7491">
      <stop
         style="stop-color:#eeeeec;stop-opacity:1"
         offset="0"
         id="stop7493" />
      <stop
         style="stop-color:#babdb6;stop-opacity:1"
         offset="1"
         id="stop7495" />
    </linearGradient>
    <linearGradient
       id="linearGradient6826"
       inkscape:collect="always">
      <stop
         id="stop6828"
         offset="0"
         style="stop-color:#babdb6;stop-opacity:1" />
      <stop
         id="stop6830"
         offset="1"
         style="stop-color:#eeeeec;stop-opacity:1" />
    </linearGradient>
    <linearGradient
       id="linearGradient2816"
       inkscape:collect="always">
      <stop
         id="stop2818"
         offset="0"
         style="stop-color:white;stop-opacity:1;" />
      <stop
         id="stop2820"
         offset="1"
         style="stop-color:white;stop-opacity:0;" />
    </linearGradient>
    <linearGradient
       id="linearGradient4542"
       inkscape:collect="always">
      <stop
         id="stop4544"
         offset="0"
         style="stop-color:#888a85;stop-opacity:1" />
      <stop
         id="stop4546"
         offset="1"
         style="stop-color:#888a85;stop-opacity:0" />
    </linearGradient>
    <linearGradient
       inkscape:collect="always"
       id="linearGradient6958">
      <stop
         style="stop-color:#000000;stop-opacity:1"
         offset="0"
         id="stop6960" />
      <stop
         style="stop-color:#888a85;stop-opacity:0;"
         offset="1"
         id="stop6962" />
    </linearGradient>
    <linearGradient
       inkscape:collect="always"
       xlink:href="#linearGradient7614"
       id="linearGradient6789"
       gradientUnits="userSpaceOnUse"
       gradientTransform="matrix(0,0.673693,-0.676136,0,37.10227,14.81577)"
       x1="6.7188582"
       y1="22.936218"
       x2="44.344444"
       y2="42.604996" />
    <linearGradient
       inkscape:collect="always"
       xlink:href="#linearGradient6958"
       id="linearGradient6791"
       gradientUnits="userSpaceOnUse"
       gradientTransform="matrix(0,0.625,-0.676136,0,37.10227,15.875)"
       x1="17"
       y1="45.248375"
       x2="17"
       y2="30.759407" />
    <linearGradient
       inkscape:collect="always"
       xlink:href="#linearGradient4542"
       id="linearGradient6798"
       gradientUnits="userSpaceOnUse"
       gradientTransform="matrix(0.727273,0,0,0.999999,12.27273,-34.84375)"
       x1="33.120464"
       y1="20.5"
       x2="22.328388"
       y2="20.5" />
    <linearGradient
       inkscape:collect="always"
       xlink:href="#linearGradient2816"
       id="linearGradient6834"
       gradientUnits="userSpaceOnUse"
       gradientTransform="matrix(0,0.673693,-0.676136,0,37.10227,14.81577)"
       x1="15.406166"
       y1="37.34367"
       x2="16.864777"
       y2="24.249567" />
    <linearGradient
       inkscape:collect="always"
       xlink:href="#linearGradient6826"
       id="linearGradient7425"
       gradientUnits="userSpaceOnUse"
       gradientTransform="matrix(0,0.673693,-0.676136,0,37.10227,14.81577)"
       x1="13.819278"
       y1="30.029789"
       x2="36.227631"
       y2="45.194965" />
    <linearGradient
       inkscape:collect="always"
       xlink:href="#linearGradient6958"
       id="linearGradient7427"
       gradientUnits="userSpaceOnUse"
       gradientTransform="matrix(0,0.625,-0.676136,0,37.10227,15.875)"
       x1="17"
       y1="45.248375"
       x2="17"
       y2="30.759407" />
    <linearGradient
       inkscape:collect="always"
       xlink:href="#linearGradient2816"
       id="linearGradient7431"
       gradientUnits="userSpaceOnUse"
       gradientTransform="matrix(0,0.673693,-0.676136,0,37.10227,14.81577)"
       x1="15.406166"
       y1="37.34367"
       x2="16.864777"
       y2="24.249567" />
    <linearGradient
       inkscape:collect="always"
       xlink:href="#linearGradient4542"
       id="linearGradient7433"
       gradientUnits="userSpaceOnUse"
       gradientTransform="matrix(0.727273,0,0,0.999999,12.27273,-34.84375)"
       x1="33.120464"
       y1="20.5"
       x2="22.328388"
       y2="20.5" />
    <radialGradient
       inkscape:collect="always"
       xlink:href="#linearGradient7604"
       id="radialGradient7610"
       cx="20"
       cy="46"
       fx="20"
       fy="46"
       r="8"
       gradientTransform="matrix(1,0,0,0.25,0,34.5)"
       gradientUnits="userSpaceOnUse" />
    <radialGradient
       inkscape:collect="always"
       xlink:href="#linearGradient7604"
       id="radialGradient7612"
       cx="20"
       cy="46"
       fx="20"
       fy="46"
       r="8"
       gradientTransform="matrix(1,0,0,0.25,0,34.5)"
       gradientUnits="userSpaceOnUse" />
    <radialGradient
       inkscape:collect="always"
       xlink:href="#linearGradient7557"
       id="radialGradient6179"
       gradientUnits="userSpaceOnUse"
       gradientTransform="matrix(1,0,0,0.6315789,5,4.697369)"
       cx="17.812502"
       cy="14.729167"
       fx="17.812502"
       fy="14.729167"
       r="9.5000006" />
    <radialGradient
       inkscape:collect="always"
       xlink:href="#linearGradient7491"
       id="radialGradient6183"
       gradientUnits="userSpaceOnUse"
       gradientTransform="matrix(-1.5922835,-0.1907818,-1.1802872,-1.4345654,62.810344,17.307175)"
       cx="23.681061"
       cy="5.3414755"
       fx="23.681061"
       fy="5.3414755"
       r="5.0552441" />
    <radialGradient
       inkscape:collect="always"
       xlink:href="#linearGradient7592"
       id="radialGradient6187"
       gradientUnits="userSpaceOnUse"
       gradientTransform="matrix(1,0,0,0.6206897,0,0.7823276)"
       cx="11.15625"
       cy="2.0625"
       fx="11.15625"
       fy="2.0625"
       r="0.90625" />
    <radialGradient
       inkscape:collect="always"
       xlink:href="#linearGradient7549"
       id="radialGradient6191"
       gradientUnits="userSpaceOnUse"
       gradientTransform="matrix(1.6372128,-0.3629926,2.1525103,1.8500902,-31.53018,3.83716)"
       cx="24.090876"
       cy="5.052979"
       fx="24.090876"
       fy="5.052979"
       r="4.4921517" />
    <linearGradient
       inkscape:collect="always"
       xlink:href="#linearGradient7567"
       id="linearGradient6195"
       gradientUnits="userSpaceOnUse"
       gradientTransform="matrix(1.1304264,-0.235981,0.915432,0.6373638,-10.020125,9.288008)"
       x1="20.722668"
       y1="16.830494"
       x2="22.697027"
       y2="15.894469" />
    <radialGradient
       inkscape:collect="always"
       xlink:href="#linearGradient7582"
       id="radialGradient6201"
       gradientUnits="userSpaceOnUse"
       gradientTransform="matrix(1,0,0,0.6206897,0,0.7823276)"
       cx="11.15625"
       cy="2.0625"
       fx="11.15625"
       fy="2.0625"
       r="0.90625" />
  </defs>
  <sodipodi:namedview
     id="base"
     pagecolor="#ffffff"
     bordercolor="#666666"
     borderopacity="0.37647059"
     inkscape:pageopacity="0.0"
     inkscape:pageshadow="2"
     inkscape:zoom="4"
     inkscape:cx="27.71209"
     inkscape:cy="1.9240639"
     inkscape:document-units="px"
     inkscape:current-layer="layer1"
     width="48px"
     height="48px"
     inkscape:showpageshadow="false"
     inkscape:window-width="1006"
     inkscape:window-height="719"
     inkscape:window-x="13"
     inkscape:window-y="73"
     inkscape:snap-bbox="true"
     gridtolerance="10000"
     showborder="false"
     showgrid="false">
    <inkscape:grid
       type="xygrid"
       id="grid6206"
       spacingx="0.5px"
       spacingy="0.5px"
       empspacing="2" />
    <inkscape:grid
       id="GridFromPre046Settings"
       type="xygrid"
       originx="0px"
       originy="0px"
       spacingx="0.5px"
       spacingy="0.5px"
       color="#0000ff"
       empcolor="#0000ff"
       opacity="0.2"
       empopacity="0.4"
       empspacing="2" />
  </sodipodi:namedview>
  <metadata
     id="metadata7">
    <rdf:RDF>
      <cc:Work
         rdf:about="">
        <dc:format>image/svg+xml</dc:format>
        <dc:type
           rdf:resource="http://purl.org/dc/dcmitype/StillImage" />
        <dc:creator>
          <cc:Agent>
            <dc:title>Lapo Calamandrei</dc:title>
          </cc:Agent>
        </dc:creator>
        <cc:license
           rdf:resource="http://creativecommons.org/licenses/GPL/2.0/" />
        <dc:contributor>
          <cc:Agent>
            <dc:title>Ulisse Perusin</dc:title>
          </cc:Agent>
        </dc:contributor>
        <dc:title>Keys</dc:title>
        <dc:subject>
          <rdf:Bag>
            <rdf:li>keys</rdf:li>
            <rdf:li>key</rdf:li>
            <rdf:li>password</rdf:li>
            <rdf:li>authentication</rdf:li>
          </rdf:Bag>
        </dc:subject>
      </cc:Work>
    </rdf:RDF>
  </metadata>
  <g
     inkscape:label="Livello 1"
     inkscape:groupmode="layer"
     id="layer1">
    <path
       sodipodi:nodetypes="css"
       id="use6159"
       d="M 29.281173,15.167592 C 26.785192,15.688638 21.273503,13.684434 16.978296,10.693923 C 12.683089,7.703412 11.222848,4.853453 13.718829,4.332407"
       style="fill:none;fill-opacity:1;fill-rule:evenodd;stroke:#babdb6;stroke-width:3;stroke-linecap:round;stroke-linejoin:miter;stroke-miterlimit:4;stroke-dashoffset:0.69999992;stroke-opacity:1" />
    <path
       id="use6161"
       d="M 26.021707,8.806075 C 30.316914,11.796586 31.777155,14.646546 29.281173,15.167592 C 26.785192,15.688638 21.273503,13.684434 16.978296,10.693923 C 12.683089,7.703412 11.222848,4.853453 13.718829,4.332407 C 16.214811,3.811361 21.7265,5.815564 26.021707,8.806075 z"
       style="fill:none;fill-opacity:1;fill-rule:evenodd;stroke:url(#radialGradient6179);stroke-width:1;stroke-linecap:round;stroke-linejoin:miter;stroke-miterlimit:4;stroke-dashoffset:0.69999992;stroke-opacity:1" />
    <path
       transform="matrix(1.1034483,0,0,1.7777778,7.636801,8.759256)"
       d="M 12.0625,2.0625 A 0.90625,0.5625 0 1 1 10.25,2.0625 A 0.90625,0.5625 0 1 1 12.0625,2.0625 z"
       sodipodi:ry="0.5625"
       sodipodi:rx="0.90625"
       sodipodi:cy="2.0625"
       sodipodi:cx="11.15625"
       id="use6173"
       style="fill:url(#radialGradient6201);fill-opacity:1;fill-rule:evenodd;stroke:none;stroke-width:1;stroke-linecap:round;stroke-linejoin:miter;marker:none;marker-start:none;marker-mid:none;marker-end:none;stroke-miterlimit:4;stroke-dasharray:none;stroke-dashoffset:0.67741674;stroke-opacity:1;visibility:visible;display:inline;overflow:visible;enable-background:accumulate"
       sodipodi:type="arc" />
    <g
       id="g7413"
       transform="matrix(1.222459,0.3275569,-0.3275569,1.222459,20.102844,-14.764282)">
      <path
         id="path7415"
         d="M 13.4375,16.5 C 9.5186162,16.499999 6.34375,19.657775 6.34375,23.5625 C 6.3437502,26.380698 7.9483759,28.863095 10.34375,30 L 10.34375,31.5 L 11.84375,33 L 10.34375,34.5 L 10.34375,35.5 L 12.34375,36.5 L 12.34375,37.5 L 10.34375,38.5 L 10.34375,39.5 L 11.84375,41 L 10.34375,42.5 L 10.34375,43.5 L 12.84375,45.5 L 15.34375,45.5 L 16.34375,44 L 16.34375,30 C 18.716179,28.854566 20.34375,26.301484 20.34375,23.5 C 20.34375,19.595276 17.356384,16.5 13.4375,16.5 z M 13.34375,18.5 C 14.44775,18.5 15.34375,19.396 15.34375,20.5 C 15.34375,21.604 14.44775,22.5 13.34375,22.5 C 12.23975,22.5 11.34375,21.604 11.34375,20.5 C 11.34375,19.396 12.23975,18.5 13.34375,18.5 z"
         style="fill:url(#linearGradient7425);fill-opacity:1;fill-rule:evenodd;stroke:#888a85;stroke-width:0.79014969;stroke-linecap:round;stroke-linejoin:miter;stroke-miterlimit:4;stroke-dasharray:none;stroke-opacity:1"
         sodipodi:nodetypes="csccccccccccccccccsccsssc" />
      <path
         id="path7417"
         d="M 18.846598,24 L 8.028422,24 C 8.028422,26.76 10.451693,29 13.43751,29 C 16.423327,29 18.846598,26.76 18.846598,24 z"
         style="opacity:0.3;fill:url(#linearGradient7427);fill-opacity:1;fill-rule:evenodd;stroke:none;stroke-width:1.0274241;stroke-linecap:round;stroke-linejoin:miter;stroke-miterlimit:4;stroke-dasharray:none;stroke-opacity:1" />
      <path
         d="M 13.4375,17.28125 C 9.9358164,17.281249 7.125,20.078754 7.125,23.5625 C 7.1250002,26.085898 8.5663689,28.305758 10.6875,29.3125 C 10.951494,29.440624 11.120744,29.706589 11.125,30 L 11.125,31.15625 L 12.40625,32.4375 C 12.560213,32.584102 12.647354,32.787405 12.647354,33 C 12.647354,33.212595 12.560213,33.415898 12.40625,33.5625 L 11.125,34.84375 L 11.125,35.03125 L 12.6875,35.8125 C 12.951494,35.940624 13.120744,36.206589 13.125,36.5 L 13.125,37.5 C 13.120744,37.793411 12.951494,38.059376 12.6875,38.1875 L 11.125,38.96875 L 11.125,39.15625 L 12.40625,40.4375 C 12.560213,40.584102 12.647354,40.787405 12.647354,41 C 12.647354,41.212595 12.560213,41.415898 12.40625,41.5625 L 11.125,42.84375 L 11.125,43.125 L 13.125,44.71875 L 14.90625,44.71875 L 15.5625,43.75 L 15.5625,30 C 15.566756,29.706589 15.736006,29.440624 16,29.3125 C 18.090762,28.303058 19.5625,26.000684 19.5625,23.5 C 19.5625,19.991393 16.947441,17.28125 13.4375,17.28125 z M 13.34375,17.71875 C 14.867958,17.71875 16.125,18.975792 16.125,20.5 C 16.125,22.024208 14.867958,23.28125 13.34375,23.28125 C 11.819542,23.28125 10.5625,22.024208 10.5625,20.5 C 10.5625,18.975792 11.819542,17.71875 13.34375,17.71875 z"
         inkscape:href="#path1884"
         id="path7419"
         style="opacity:1;fill:none;fill-opacity:1;fill-rule:evenodd;stroke:#ffffff;stroke-width:0.79014969;stroke-linecap:round;stroke-linejoin:miter;stroke-miterlimit:4;stroke-dasharray:none;stroke-opacity:1"
         xlink:href="#path1884"
         inkscape:original="M 13.4375 16.5 C 9.5186162 16.499999 6.34375 19.657775 6.34375 23.5625 C 6.3437502 26.380698 7.9483759 28.863095 10.34375 30 L 10.34375 31.5 L 11.84375 33 L 10.34375 34.5 L 10.34375 35.5 L 12.34375 36.5 L 12.34375 37.5 L 10.34375 38.5 L 10.34375 39.5 L 11.84375 41 L 10.34375 42.5 L 10.34375 43.5 L 12.84375 45.5 L 15.34375 45.5 L 16.34375 44 L 16.34375 30 C 18.716179 28.854566 20.34375 26.301484 20.34375 23.5 C 20.34375 19.595276 17.356384 16.5 13.4375 16.5 z M 13.34375 18.5 C 14.44775 18.5 15.34375 19.396 15.34375 20.5 C 15.34375 21.604 14.44775 22.5 13.34375 22.5 C 12.23975 22.5 11.34375 21.604 11.34375 20.5 C 11.34375 19.396 12.23975 18.5 13.34375 18.5 z "
         inkscape:radius="-0.77663463"
         sodipodi:type="inkscape:offset" />
      <path
         sodipodi:type="inkscape:offset"
         inkscape:radius="-0.10364762"
         inkscape:original="M 13.40625 17.53125 C 13.179953 17.535742 12.940048 17.565361 12.71875 17.59375 C 11.746507 17.718472 10.844502 18.056009 10.0625 18.5625 C 10.273788 19.382459 10.603512 20.028723 11 20.59375 C 10.998818 20.562191 11 20.531846 11 20.5 C 11 19.119998 12.119999 18 13.5 18 C 14.880001 18 16 19.119998 16 20.5 C 16 21.880003 14.880001 23 13.5 23 C 13.338115 23 13.184591 22.966937 13.03125 22.9375 C 14.159156 24.243071 15.219875 25.922289 15.46875 29.3125 C 17.839227 28.416828 19.53125 26.324417 19.53125 23.5625 C 19.444481 20.923505 17.958879 18.870351 15.46875 17.84375 C 14.777284 17.614671 14.085142 17.517773 13.40625 17.53125 z M 15.46875 31.96875 C 15.356466 34.978468 14.778907 38.970391 13.4375 44.46875 L 14.78125 44.46875 L 15.46875 43.125 L 15.46875 31.96875 z "
         style="opacity:0.6;fill:url(#linearGradient7431);fill-opacity:1;fill-rule:evenodd;stroke:none;stroke-width:1;stroke-linecap:round;stroke-linejoin:miter;stroke-miterlimit:4;stroke-dasharray:none;stroke-opacity:1"
         id="path7421"
         d="M 13.40625,17.625 C 13.187538,17.629341 12.939695,17.659156 12.71875,17.6875 C 11.78621,17.807129 10.942882,18.147772 10.1875,18.625 C 10.361143,19.259817 10.61214,19.783079 10.90625,20.25 C 11.032204,18.930646 12.148103,17.90625 13.5,17.90625 C 14.936081,17.90625 16.09375,19.063918 16.09375,20.5 C 16.09375,21.936083 14.936081,23.09375 13.5,23.09375 C 13.422832,23.09375 13.35303,23.07256 13.28125,23.0625 C 14.340561,24.332754 15.303193,26.006767 15.5625,29.15625 C 17.828737,28.247206 19.4375,26.230684 19.4375,23.5625 C 19.35195,20.960576 17.896038,18.951077 15.4375,17.9375 C 14.757352,17.712171 14.073888,17.611746 13.40625,17.625 z M 15.375,34.6875 C 15.095565,37.273086 14.520442,40.429504 13.5625,44.375 L 14.71875,44.375 L 15.375,43.0625 L 15.375,34.6875 z" />
      <rect
         transform="matrix(0,1,-1,0,0,0)"
         y="-14.84375"
         x="29"
         height="0.98128641"
         width="16.311773"
         id="rect7423"
         style="opacity:0.61538463;fill:url(#linearGradient7433);fill-opacity:1;fill-rule:evenodd;stroke:none;stroke-width:1;stroke-linecap:round;stroke-linejoin:miter;stroke-miterlimit:4;stroke-dasharray:none;stroke-opacity:1" />
    </g>
    <path
       style="opacity:0.15;fill:#000000;fill-opacity:1;fill-rule:evenodd;stroke:#000000;stroke-width:0.99999976;stroke-linecap:round;stroke-linejoin:miter;stroke-miterlimit:4;stroke-dasharray:none;stroke-opacity:1"
       d="M 30.6875,10.625 C 30.098939,10.661819 29.505084,10.745793 28.90625,10.90625 C 24.115576,12.189907 21.25223,17.101634 22.53125,21.875 C 23.454371,25.32013 26.230603,27.832302 29.53125,28.4375 L 29.71875,29.1875 L 30.25,27.25 C 33.525392,26.626859 36.363605,24.049699 37.28125,20.625 C 38.299279,16.825659 36.836651,13.036796 33.78125,11 C 32.800972,10.694138 31.762022,10.55778 30.6875,10.625 z M 29.84375,12.125 C 30.011592,12.135047 30.175051,12.173547 30.34375,12.21875 C 31.419208,12.506918 32.150516,13.446908 32.21875,14.5 C 32.348212,14.707411 32.464707,14.939157 32.53125,15.1875 C 32.892873,16.537095 32.099594,17.919627 30.75,18.28125 C 29.400405,18.642874 28.017873,17.849594 27.65625,16.5 C 27.613776,16.341486 27.573871,16.189118 27.5625,16.03125 C 27.557842,16.023973 27.567083,16.007324 27.5625,16 C 27.202707,15.425077 27.060751,14.706288 27.25,14 C 27.566419,12.819104 28.668855,12.054668 29.84375,12.125 z"
       id="path7441" />
    <g
       id="g6765"
       transform="matrix(1.222459,-0.3275569,0.3275569,1.222459,7.064799,-5.8541513)">
      <path
         id="path6767"
         d="M 13.4375,16.5 C 9.5186162,16.499999 6.34375,19.657775 6.34375,23.5625 C 6.3437502,26.380698 7.9483759,28.863095 10.34375,30 L 10.34375,31.5 L 11.84375,33 L 10.34375,34.5 L 10.34375,35.5 L 12.34375,36.5 L 12.34375,37.5 L 10.34375,38.5 L 10.34375,39.5 L 11.84375,41 L 10.34375,42.5 L 10.34375,43.5 L 12.84375,45.5 L 15.34375,45.5 L 16.34375,44 L 16.34375,30 C 18.716179,28.854566 20.34375,26.301484 20.34375,23.5 C 20.34375,19.595276 17.356384,16.5 13.4375,16.5 z M 13.34375,18.5 C 14.44775,18.5 15.34375,19.396 15.34375,20.5 C 15.34375,21.604 14.44775,22.5 13.34375,22.5 C 12.23975,22.5 11.34375,21.604 11.34375,20.5 C 11.34375,19.396 12.23975,18.5 13.34375,18.5 z"
         style="fill:url(#linearGradient6789);fill-opacity:1;fill-rule:evenodd;stroke:#888a85;stroke-width:0.79014969;stroke-linecap:round;stroke-linejoin:miter;stroke-miterlimit:4;stroke-dasharray:none;stroke-opacity:1"
         sodipodi:nodetypes="csccccccccccccccccsccsssc" />
      <path
         id="path6769"
         d="M 18.846598,24 L 8.028422,24 C 8.028422,26.76 10.451693,29 13.43751,29 C 16.423327,29 18.846598,26.76 18.846598,24 z"
         style="opacity:0.3;fill:url(#linearGradient6791);fill-opacity:1;fill-rule:evenodd;stroke:none;stroke-width:1.0274241;stroke-linecap:round;stroke-linejoin:miter;stroke-miterlimit:4;stroke-dasharray:none;stroke-opacity:1" />
      <path
         d="M 13.4375,17.28125 C 9.9358164,17.281249 7.125,20.078754 7.125,23.5625 C 7.1250002,26.085898 8.5663689,28.305758 10.6875,29.3125 C 10.951494,29.440624 11.120744,29.706589 11.125,30 L 11.125,31.15625 L 12.40625,32.4375 C 12.560213,32.584102 12.647354,32.787405 12.647354,33 C 12.647354,33.212595 12.560213,33.415898 12.40625,33.5625 L 11.125,34.84375 L 11.125,35.03125 L 12.6875,35.8125 C 12.951494,35.940624 13.120744,36.206589 13.125,36.5 L 13.125,37.5 C 13.120744,37.793411 12.951494,38.059376 12.6875,38.1875 L 11.125,38.96875 L 11.125,39.15625 L 12.40625,40.4375 C 12.560213,40.584102 12.647354,40.787405 12.647354,41 C 12.647354,41.212595 12.560213,41.415898 12.40625,41.5625 L 11.125,42.84375 L 11.125,43.125 L 13.125,44.71875 L 14.90625,44.71875 L 15.5625,43.75 L 15.5625,30 C 15.566756,29.706589 15.736006,29.440624 16,29.3125 C 18.090762,28.303058 19.5625,26.000684 19.5625,23.5 C 19.5625,19.991393 16.947441,17.28125 13.4375,17.28125 z M 13.34375,17.71875 C 14.867958,17.71875 16.125,18.975792 16.125,20.5 C 16.125,22.024208 14.867958,23.28125 13.34375,23.28125 C 11.819542,23.28125 10.5625,22.024208 10.5625,20.5 C 10.5625,18.975792 11.819542,17.71875 13.34375,17.71875 z"
         inkscape:href="#path1884"
         id="path6771"
         style="opacity:1;fill:none;fill-opacity:1;fill-rule:evenodd;stroke:#ffffff;stroke-width:0.79014969;stroke-linecap:round;stroke-linejoin:miter;stroke-miterlimit:4;stroke-dasharray:none;stroke-opacity:1"
         xlink:href="#path1884"
         inkscape:original="M 13.4375 16.5 C 9.5186162 16.499999 6.34375 19.657775 6.34375 23.5625 C 6.3437502 26.380698 7.9483759 28.863095 10.34375 30 L 10.34375 31.5 L 11.84375 33 L 10.34375 34.5 L 10.34375 35.5 L 12.34375 36.5 L 12.34375 37.5 L 10.34375 38.5 L 10.34375 39.5 L 11.84375 41 L 10.34375 42.5 L 10.34375 43.5 L 12.84375 45.5 L 15.34375 45.5 L 16.34375 44 L 16.34375 30 C 18.716179 28.854566 20.34375 26.301484 20.34375 23.5 C 20.34375 19.595276 17.356384 16.5 13.4375 16.5 z M 13.34375 18.5 C 14.44775 18.5 15.34375 19.396 15.34375 20.5 C 15.34375 21.604 14.44775 22.5 13.34375 22.5 C 12.23975 22.5 11.34375 21.604 11.34375 20.5 C 11.34375 19.396 12.23975 18.5 13.34375 18.5 z "
         inkscape:radius="-0.77663463"
         sodipodi:type="inkscape:offset" />
      <path
         sodipodi:type="inkscape:offset"
         inkscape:radius="-0.10364762"
         inkscape:original="M 13.40625 17.53125 C 13.179953 17.535742 12.940048 17.565361 12.71875 17.59375 C 11.746507 17.718472 10.844502 18.056009 10.0625 18.5625 C 10.273788 19.382459 10.603512 20.028723 11 20.59375 C 10.998818 20.562191 11 20.531846 11 20.5 C 11 19.119998 12.119999 18 13.5 18 C 14.880001 18 16 19.119998 16 20.5 C 16 21.880003 14.880001 23 13.5 23 C 13.338115 23 13.184591 22.966937 13.03125 22.9375 C 14.159156 24.243071 15.219875 25.922289 15.46875 29.3125 C 17.839227 28.416828 19.53125 26.324417 19.53125 23.5625 C 19.444481 20.923505 17.958879 18.870351 15.46875 17.84375 C 14.777284 17.614671 14.085142 17.517773 13.40625 17.53125 z M 15.46875 31.96875 C 15.356466 34.978468 14.778907 38.970391 13.4375 44.46875 L 14.78125 44.46875 L 15.46875 43.125 L 15.46875 31.96875 z "
         style="opacity:0.6;fill:url(#linearGradient6834);fill-opacity:1;fill-rule:evenodd;stroke:none;stroke-width:1;stroke-linecap:round;stroke-linejoin:miter;stroke-miterlimit:4;stroke-dasharray:none;stroke-opacity:1"
         id="path6832"
         d="M 13.40625,17.625 C 13.187538,17.629341 12.939695,17.659156 12.71875,17.6875 C 11.78621,17.807129 10.942882,18.147772 10.1875,18.625 C 10.361143,19.259817 10.61214,19.783079 10.90625,20.25 C 11.032204,18.930646 12.148103,17.90625 13.5,17.90625 C 14.936081,17.90625 16.09375,19.063918 16.09375,20.5 C 16.09375,21.936083 14.936081,23.09375 13.5,23.09375 C 13.422832,23.09375 13.35303,23.07256 13.28125,23.0625 C 14.340561,24.332754 15.303193,26.006767 15.5625,29.15625 C 17.828737,28.247206 19.4375,26.230684 19.4375,23.5625 C 19.35195,20.960576 17.896038,18.951077 15.4375,17.9375 C 14.757352,17.712171 14.073888,17.611746 13.40625,17.625 z M 15.375,34.6875 C 15.095565,37.273086 14.520442,40.429504 13.5625,44.375 L 14.71875,44.375 L 15.375,43.0625 L 15.375,34.6875 z" />
      <rect
         transform="matrix(0,1,-1,0,0,0)"
         y="-14.84375"
         x="29"
         height="0.98128641"
         width="16.311773"
         id="rect6776"
         style="opacity:0.61538463;fill:url(#linearGradient6798);fill-opacity:1;fill-rule:evenodd;stroke:none;stroke-width:1;stroke-linecap:round;stroke-linejoin:miter;stroke-miterlimit:4;stroke-dasharray:none;stroke-opacity:1" />
    </g>
    <path
       id="use6163"
       d="M 12.973909,6.89413 C 11.383785,4.300006 13.912938,3.474058 18.619341,5.050498 C 23.325744,6.626938 28.43597,10.011744 30.026094,12.605869 C 30.815137,13.893112 30.66966,14.718832 29.589384,15.084608"
       style="fill:none;fill-opacity:1;fill-rule:evenodd;stroke:url(#radialGradient6183);stroke-width:3;stroke-linecap:round;stroke-linejoin:miter;stroke-miterlimit:4;stroke-dashoffset:0.69999992;stroke-opacity:1" />
    <path
       transform="matrix(1.5911082,0,0,2.563452,-1.228703,-0.838246)"
       d="M 12.0625,2.0625 A 0.90625,0.5625 0 1 1 10.25,2.0625 A 0.90625,0.5625 0 1 1 12.0625,2.0625 z"
       sodipodi:ry="0.5625"
       sodipodi:rx="0.90625"
       sodipodi:cy="2.0625"
       sodipodi:cx="11.15625"
       id="use6165"
       style="fill:url(#radialGradient6187);fill-opacity:1;fill-rule:evenodd;stroke:none;stroke-width:1;stroke-linecap:round;stroke-linejoin:miter;marker:none;marker-start:none;marker-mid:none;marker-end:none;stroke-miterlimit:4;stroke-dasharray:none;stroke-dashoffset:0.67741674;stroke-opacity:1;visibility:visible;display:inline;overflow:visible;enable-background:accumulate"
       sodipodi:type="arc" />
    <path
       id="use6167"
       d="M 15.813348,9.832144 C 11.962997,6.796919 11.385696,4.296748 14.524729,4.251404 C 17.663762,4.20606 23.336305,6.63263 27.186655,9.667855 C 30.978296,12.656798 31.608939,15.128828 28.609463,15.24505"
       style="fill:none;fill-opacity:1;fill-rule:evenodd;stroke:url(#radialGradient6191);stroke-width:1;stroke-linecap:round;stroke-linejoin:miter;stroke-miterlimit:4;stroke-dashoffset:0.69999992;stroke-opacity:1" />
    <path
       sodipodi:nodetypes="cc"
       id="use6169"
       d="M 27.186054,9.667381 C 30.978172,12.656487 31.609106,15.128821 28.609463,15.24505"
       style="opacity:0.10407242;fill:none;fill-opacity:1;fill-rule:evenodd;stroke:url(#linearGradient6195);stroke-width:1;stroke-linecap:round;stroke-linejoin:miter;stroke-miterlimit:4;stroke-dashoffset:0.69999992;stroke-opacity:1" />
    <path
       transform="matrix(1.1034483,0,0,1.7777778,4.30014,0.804304)"
       d="M 12.0625,2.0625 A 0.90625,0.5625 0 1 1 10.25,2.0625 A 0.90625,0.5625 0 1 1 12.0625,2.0625 z"
       sodipodi:ry="0.5625"
       sodipodi:rx="0.90625"
       sodipodi:cy="2.0625"
       sodipodi:cx="11.15625"
       id="use6171"
       style="fill:#ffffff;fill-opacity:1;fill-rule:evenodd;stroke:none;stroke-width:1;stroke-linecap:round;stroke-linejoin:miter;marker:none;marker-start:none;marker-mid:none;marker-end:none;stroke-miterlimit:4;stroke-dasharray:none;stroke-dashoffset:0.67741674;stroke-opacity:1;visibility:visible;display:inline;overflow:visible;enable-background:accumulate"
       sodipodi:type="arc" />
    <path
       style="opacity:1;fill:#ff8080;fill-opacity:1;stroke:#d40000;stroke-width:0.61276382;stroke-linecap:butt;stroke-linejoin:miter;stroke-miterlimit:10;stroke-dasharray:none;stroke-dashoffset:0;stroke-opacity:1"
       d="M 12.612363,1.377192 C 6.254949,1.377192 1.097552,5.779745 1.097552,11.20149 C 1.097552,16.623242 6.258557,21.454794 13.810081,21.074612 C 14.300293,22.743273 16.096775,24.751955 19.088754,24.82231 C 18.318602,23.766743 17.263985,22.715232 17.240502,20.174085 C 21.288869,18.650958 24.127173,15.21542 24.127173,11.20149 C 24.127173,5.779745 18.969782,1.377192 12.612363,1.377192 z"
       id="path1314"
       sodipodi:nodetypes="cscccsc" />
    <path
       style="opacity:0.78021982;fill:none;fill-opacity:1;stroke:#ffffff;stroke-width:0.61276382;stroke-linecap:round;stroke-linejoin:miter;stroke-miterlimit:4;stroke-dasharray:none;stroke-dashoffset:0;stroke-opacity:1"
       d="M 12.575337,1.991211 C 6.519924,1.991211 1.597391,6.104251 1.597391,11.181683 C 1.597391,16.259122 7.257358,21.248578 14.331252,20.372929 C 14.327644,22.056408 16.472832,23.846896 17.722083,23.992879 C 17.10502,23.037685 16.68035,21.547541 16.629588,19.718523 C 20.671089,18.362009 23.534771,15.053084 23.534771,11.181683 C 23.534771,6.104251 18.630756,1.991211 12.575337,1.991211 z"
       id="path1318"
       sodipodi:nodetypes="cscccsc" />
    <text
       xml:space="preserve"
       style="font-size:19.60844231px;font-style:normal;font-weight:normal;fill:#000000;fill-opacity:1;stroke:none;stroke-width:1px;stroke-linecap:butt;stroke-linejoin:miter;stroke-opacity:1;font-family:Bitstream Vera Sans"
       x="8.2669039"
       y="18.274813"
       id="text2392"
       transform="scale(0.9667702,1.0343719)"><tspan
         sodipodi:role="line"
         id="tspan2394"
         x="8.2669039"
         y="18.274813">?</tspan></text>
  </g>
</svg>
