<?xml version="1.0" encoding="UTF-8" standalone="no"?>
<!-- Created with Inkscape (http://www.inkscape.org/) -->
<svg
   xmlns:dc="http://purl.org/dc/elements/1.1/"
   xmlns:cc="http://creativecommons.org/ns#"
   xmlns:rdf="http://www.w3.org/1999/02/22-rdf-syntax-ns#"
   xmlns:svg="http://www.w3.org/2000/svg"
   xmlns="http://www.w3.org/2000/svg"
   xmlns:xlink="http://www.w3.org/1999/xlink"
   xmlns:sodipodi="http://sodipodi.sourceforge.net/DTD/sodipodi-0.dtd"
   xmlns:inkscape="http://www.inkscape.org/namespaces/inkscape"
   version="1.0"
   width="48"
   height="48"
   id="svg3440"
   sodipodi:version="0.32"
   inkscape:version="0.46"
   sodipodi:docname="webforwardAdd.svg"
   inkscape:output_extension="org.inkscape.output.svg.inkscape">
  <metadata
     id="metadata2960">
    <rdf:RDF>
      <cc:Work
         rdf:about="">
        <dc:format>image/svg+xml</dc:format>
        <dc:type
           rdf:resource="http://purl.org/dc/dcmitype/StillImage" />
      </cc:Work>
    </rdf:RDF>
  </metadata>
  <sodipodi:namedview
     inkscape:window-height="719"
     inkscape:window-width="641"
     inkscape:pageshadow="2"
     inkscape:pageopacity="0.0"
     guidetolerance="10.0"
     gridtolerance="10.0"
     objecttolerance="10.0"
     borderopacity="1.0"
     bordercolor="#666666"
     pagecolor="#ffffff"
     id="base"
     showgrid="false"
     inkscape:zoom="10.291667"
     inkscape:cx="24"
     inkscape:cy="24"
     inkscape:window-x="4"
     inkscape:window-y="49"
     inkscape:current-layer="svg3440" />
  <defs
     id="defs3">
    <inkscape:perspective
       sodipodi:type="inkscape:persp3d"
       inkscape:vp_x="0 : 24 : 1"
       inkscape:vp_y="0 : 1000 : 0"
       inkscape:vp_z="48 : 24 : 1"
       inkscape:persp3d-origin="24 : 16 : 1"
       id="perspective2962" />
    <linearGradient
       id="linearGradient2091">
      <stop
         id="stop2093"
         style="stop-color:#000000;stop-opacity:1"
         offset="0" />
      <stop
         id="stop2095"
         style="stop-color:#000000;stop-opacity:0"
         offset="1" />
    </linearGradient>
    <radialGradient
       cx="23.070683"
       cy="35.127438"
       r="10.31934"
       fx="23.070683"
       fy="35.127438"
       id="radialGradient2097"
       xlink:href="#linearGradient2091"
       gradientUnits="userSpaceOnUse"
       gradientTransform="matrix(0.914812,1.265023e-2,-8.21502e-3,0.213562,2.253914,27.18889)" />
    <linearGradient
       id="linearGradient7916">
      <stop
         id="stop7918"
         style="stop-color:#ffffff;stop-opacity:1"
         offset="0" />
      <stop
         id="stop7920"
         style="stop-color:#ffffff;stop-opacity:0.34020618"
         offset="1" />
    </linearGradient>
    <linearGradient
       x1="16.874998"
       y1="22.851799"
       x2="27.900846"
       y2="34.976799"
       id="linearGradient7922"
       xlink:href="#linearGradient7916"
       gradientUnits="userSpaceOnUse"
       gradientTransform="matrix(0.6245192,0,0,0.6137114,34.530678,1.9124447)" />
    <linearGradient
       id="linearGradient1322">
      <stop
         id="stop1324"
         style="stop-color:#729fcf;stop-opacity:1"
         offset="0" />
      <stop
         id="stop1326"
         style="stop-color:#5187d6;stop-opacity:1"
         offset="1" />
    </linearGradient>
    <linearGradient
       x1="34.892849"
       y1="36.422989"
       x2="45.918697"
       y2="48.547989"
       id="linearGradient4975"
       xlink:href="#linearGradient1322"
       gradientUnits="userSpaceOnUse"
       gradientTransform="matrix(0.6245192,0,0,0.6137114,23.278185,-6.416349)" />
    <linearGradient
       id="linearGradient6001">
      <stop
         id="stop6003"
         style="stop-color:#ffffff;stop-opacity:1"
         offset="0" />
      <stop
         id="stop6005"
         style="stop-color:#ffffff;stop-opacity:0"
         offset="1" />
    </linearGradient>
    <linearGradient
       id="linearGradient4825">
      <stop
         id="stop4827"
         style="stop-color:#ffffff;stop-opacity:1"
         offset="0" />
      <stop
         id="stop4829"
         style="stop-color:#ffffff;stop-opacity:0"
         offset="1" />
    </linearGradient>
    <linearGradient
       id="linearGradient4126">
      <stop
         id="stop4128"
         style="stop-color:#ffffff;stop-opacity:1"
         offset="0" />
      <stop
         id="stop4130"
         style="stop-color:#ffffff;stop-opacity:0.16494845"
         offset="1" />
    </linearGradient>
    <linearGradient
       id="linearGradient4114">
      <stop
         id="stop4116"
         style="stop-color:#000000;stop-opacity:1"
         offset="0" />
      <stop
         id="stop4118"
         style="stop-color:#000000;stop-opacity:0"
         offset="1" />
    </linearGradient>
    <linearGradient
       id="linearGradient3962">
      <stop
         id="stop3964"
         style="stop-color:#d3e9ff;stop-opacity:1"
         offset="0" />
      <stop
         id="stop4134"
         style="stop-color:#d3e9ff;stop-opacity:1"
         offset="0.15517241" />
      <stop
         id="stop4346"
         style="stop-color:#4074ae;stop-opacity:1"
         offset="0.75" />
      <stop
         id="stop3966"
         style="stop-color:#36486c;stop-opacity:1"
         offset="1" />
    </linearGradient>
    <radialGradient
       cx="18.247644"
       cy="15.716079"
       r="29.993349"
       fx="18.247644"
       fy="15.716079"
       id="radialGradient3968"
       xlink:href="#linearGradient3962"
       gradientUnits="userSpaceOnUse"
       gradientTransform="scale(0.999989,1.000011)" />
    <radialGradient
       cx="15.115514"
       cy="63.965389"
       r="12.289036"
       fx="15.115514"
       fy="63.965389"
       id="radialGradient4120"
       xlink:href="#linearGradient4114"
       gradientUnits="userSpaceOnUse"
       gradientTransform="scale(1.64399,0.608276)" />
    <radialGradient
       cx="15.601279"
       cy="12.142302"
       r="43.526714"
       fx="15.601279"
       fy="12.142302"
       id="radialGradient4132"
       xlink:href="#linearGradient4126"
       gradientUnits="userSpaceOnUse"
       gradientTransform="scale(0.999989,1.000011)" />
    <radialGradient
       cx="12.071323"
       cy="12.493138"
       r="6.7175145"
       fx="12.071323"
       fy="12.493138"
       id="radialGradient5983"
       xlink:href="#linearGradient4825"
       gradientUnits="userSpaceOnUse" />
    <radialGradient
       cx="12.071323"
       cy="12.493138"
       r="6.7175145"
       fx="12.071323"
       fy="12.493138"
       id="radialGradient5985"
       xlink:href="#linearGradient4825"
       gradientUnits="userSpaceOnUse" />
    <radialGradient
       cx="12.071323"
       cy="12.493138"
       r="6.7175145"
       fx="12.071323"
       fy="12.493138"
       id="radialGradient5987"
       xlink:href="#linearGradient4825"
       gradientUnits="userSpaceOnUse" />
    <radialGradient
       cx="12.071323"
       cy="12.493138"
       r="6.7175145"
       fx="12.071323"
       fy="12.493138"
       id="radialGradient5989"
       xlink:href="#linearGradient4825"
       gradientUnits="userSpaceOnUse" />
    <linearGradient
       x1="-25.176178"
       y1="30.057165"
       x2="-22.252472"
       y2="21.041553"
       id="linearGradient6007"
       xlink:href="#linearGradient6001"
       gradientUnits="userSpaceOnUse" />
    <linearGradient
       x1="-25.176178"
       y1="30.057165"
       x2="-22.113543"
       y2="22.661524"
       id="linearGradient6011"
       xlink:href="#linearGradient6001"
       gradientUnits="userSpaceOnUse" />
    <linearGradient
       x1="-22.822565"
       y1="28.337734"
       x2="-22.113543"
       y2="22.661524"
       id="linearGradient6015"
       xlink:href="#linearGradient6001"
       gradientUnits="userSpaceOnUse" />
    <linearGradient
       x1="-21.658581"
       y1="15.649428"
       x2="-21.962101"
       y2="21.336346"
       id="linearGradient6019"
       xlink:href="#linearGradient6001"
       gradientUnits="userSpaceOnUse" />
    <radialGradient
       cx="23.070683"
       cy="35.127438"
       r="10.31934"
       fx="23.070683"
       fy="35.127438"
       id="radialGradient29827"
       xlink:href="#linearGradient2091"
       gradientUnits="userSpaceOnUse"
       gradientTransform="matrix(0.914812,1.265023e-2,-8.21502e-3,0.213562,2.253914,27.18889)" />
    <linearGradient
       x1="16.874998"
       y1="22.851799"
       x2="27.900846"
       y2="34.976799"
       id="linearGradient29829"
       xlink:href="#linearGradient7916"
       gradientUnits="userSpaceOnUse"
       gradientTransform="matrix(0.3827788,0,0,0.3913664,42.174741,21.42022)" />
    <linearGradient
       inkscape:collect="always"
       xlink:href="#linearGradient7916"
       id="linearGradient3136"
       gradientUnits="userSpaceOnUse"
       gradientTransform="matrix(0.3827788,0,0,0.3913664,42.174741,21.42022)"
       x1="16.874998"
       y1="22.851799"
       x2="27.900846"
       y2="34.976799" />
    <radialGradient
       inkscape:collect="always"
       xlink:href="#linearGradient2091"
       id="radialGradient3140"
       gradientUnits="userSpaceOnUse"
       gradientTransform="matrix(0.8693648,1.5962497e-2,-7.8069036e-3,0.2694799,15.502212,33.788856)"
       cx="23.070683"
       cy="35.127438"
       fx="23.070683"
       fy="35.127438"
       r="10.31934" />
    <linearGradient
       inkscape:collect="always"
       xlink:href="#linearGradient6001"
       id="linearGradient3152"
       gradientUnits="userSpaceOnUse"
       x1="-21.658581"
       y1="15.649428"
       x2="-21.962101"
       y2="21.336346"
       gradientTransform="matrix(0.917874,-0.858983,0.667701,0.713433,27.63317,-6.909069)" />
    <linearGradient
       inkscape:collect="always"
       xlink:href="#linearGradient6001"
       id="linearGradient3155"
       gradientUnits="userSpaceOnUse"
       x1="-22.822565"
       y1="28.337734"
       x2="-22.113543"
       y2="22.661524"
       gradientTransform="matrix(-1.280316,-0.126159,9.806226e-2,-0.99518,-2.405125,40.52387)" />
    <linearGradient
       inkscape:collect="always"
       xlink:href="#linearGradient6001"
       id="linearGradient3161"
       gradientUnits="userSpaceOnUse"
       x1="-25.176178"
       y1="30.057165"
       x2="-22.113543"
       y2="22.661524"
       gradientTransform="matrix(0.939326,-0.879086,0.683307,0.730131,32.31406,-4.451561)" />
    <linearGradient
       inkscape:collect="always"
       xlink:href="#linearGradient6001"
       id="linearGradient3164"
       gradientUnits="userSpaceOnUse"
       x1="-25.176178"
       y1="30.057165"
       x2="-22.252472"
       y2="21.041553"
       gradientTransform="matrix(1.131034,0.613097,-0.476556,0.879144,54.09058,16.04435)" />
    <radialGradient
       inkscape:collect="always"
       xlink:href="#linearGradient4126"
       id="radialGradient3167"
       gradientUnits="userSpaceOnUse"
       gradientTransform="scale(0.999989,1.000011)"
       cx="15.601279"
       cy="12.142302"
       fx="15.601279"
       fy="12.142302"
       r="43.526714" />
    <radialGradient
       inkscape:collect="always"
       xlink:href="#linearGradient3962"
       id="radialGradient3211"
       gradientUnits="userSpaceOnUse"
       gradientTransform="scale(0.999989,1.000011)"
       cx="18.247644"
       cy="15.716079"
       fx="18.247644"
       fy="15.716079"
       r="29.993349" />
    <radialGradient
       inkscape:collect="always"
       xlink:href="#linearGradient4114"
       id="radialGradient3214"
       gradientUnits="userSpaceOnUse"
       gradientTransform="matrix(1.64399,0,0,0.7562355,0,-10.27241)"
       cx="15.115514"
       cy="63.965389"
       fx="15.115514"
       fy="63.965389"
       r="12.289036" />
  </defs>
  <path
     style="fill:url(#radialGradient3211);fill-opacity:1;fill-rule:nonzero;stroke:#39396c;stroke-miterlimit:4;stroke-opacity:1"
     id="path3214"
     d="M 43.959853,23.485499 C 43.959853,34.195217 35.27775,42.877222 24.569505,42.877222 C 13.860279,42.877222 5.1786663,34.195119 5.1786663,23.485499 C 5.1786663,12.776272 13.860279,4.0951517 24.569505,4.0951517 C 35.27775,4.0951517 43.959853,12.776272 43.959853,23.485499 L 43.959853,23.485499 z" />
  <g
     style="fill:#204a87;fill-opacity:0.71345029;fill-rule:nonzero;stroke:none;stroke-miterlimit:4"
     id="g4136"
     transform="matrix(0.982371,0,0,0.982371,0.121079,0.232914)">
    <g
       style="fill:#204a87"
       id="g4138">
      <g
         style="fill:#204a87"
         id="g4142">
        <path
           style="fill:#204a87"
           id="path4144"
           d="M 44.0713,20.7144 C 44.0713,20.9771 44.0713,20.7144 44.0713,20.7144 L 43.5264,21.3316 C 43.1924,20.938 42.8174,20.607 42.4366,20.2613 L 41.6007,20.3843 L 40.837,19.521 L 40.837,20.5894 L 41.4913,21.0845 L 41.9268,21.5777 L 42.5088,20.9195 C 42.6553,21.1939 42.7998,21.4683 42.9453,21.7427 L 42.9453,22.565 L 42.29,23.3052 L 41.0908,24.1284 L 40.1826,25.0347 L 39.6006,24.3745 L 39.8916,23.6343 L 39.3105,22.9761 L 38.3291,20.8784 L 37.4932,19.9331 L 37.2744,20.1792 L 37.6025,21.3726 L 38.2197,22.0718 C 38.5722,23.0894 38.9209,24.062 39.3838,25.0347 C 40.1016,25.0347 40.7783,24.9585 41.4912,24.8687 L 41.4912,25.4449 L 40.6191,27.5841 L 39.8193,28.4884 L 39.165,29.8888 C 39.165,30.6564 39.165,31.424 39.165,32.1915 L 39.3838,33.0978 L 39.0205,33.508 L 38.2197,34.0021 L 37.3838,34.7013 L 38.0752,35.4826 L 37.1299,36.3068 L 37.3115,36.84 L 35.8935,38.4455 L 34.9492,38.4455 L 34.1494,38.9396 L 33.6396,38.9396 L 33.6396,38.2814 L 33.4228,36.963 C 33.1415,36.1368 32.8486,35.3165 32.5507,34.4962 C 32.5507,33.8907 32.5868,33.2911 32.623,32.6857 L 32.9873,31.8634 L 32.4775,30.8751 L 32.5146,29.5177 L 31.8232,28.7364 L 32.1689,27.6055 L 31.6064,26.9673 L 30.624,26.9673 L 30.2969,26.5972 L 29.3155,27.2149 L 28.9161,26.7613 L 28.0069,27.543 C 27.3897,26.8433 26.7715,26.1441 26.1534,25.4449 L 25.4268,23.7164 L 26.0811,22.7301 L 25.7178,22.319 L 26.5166,20.4254 C 27.1729,19.609 27.8584,18.8258 28.5518,18.0397 L 29.7881,17.7106 L 31.169,17.5465 L 32.1143,17.7936 L 33.459,19.15 L 33.9317,18.6158 L 34.585,18.5338 L 35.8213,18.9449 L 36.7666,18.9449 L 37.4209,18.3687 L 37.7119,17.9576 L 37.0566,17.5465 L 35.9658,17.4645 C 35.6631,17.0446 35.3818,16.6032 35.0224,16.2301 L 34.6581,16.3942 L 34.5126,17.4645 L 33.8583,16.7243 L 33.7138,15.9001 L 32.9872,15.3259 L 32.6952,15.3259 L 33.4227,16.1482 L 33.1317,16.8884 L 32.5506,17.0525 L 32.9139,16.3123 L 32.2586,15.9842 L 31.6785,15.326 L 30.5867,15.5721 L 30.4422,15.9002 L 29.7879,16.3123 L 29.4246,17.2176 L 28.5164,17.6697 L 28.116,17.2176 L 27.6805,17.2176 L 27.6805,15.7362 L 28.6258,15.2421 L 29.3524,15.2421 L 29.2059,14.6669 L 28.6258,14.0907 L 29.6063,13.8846 L 30.1512,13.2684 L 30.5867,12.5272 L 31.3875,12.5272 L 31.1687,11.952 L 31.6785,11.6229 L 31.6785,12.2811 L 32.7683,12.5272 L 33.8581,11.6229 L 33.9313,11.2108 L 34.8756,10.5531 C 34.5338,10.5956 34.192,10.6268 33.858,10.7177 L 33.858,9.9766 L 34.2213,9.1538 L 33.858,9.1538 L 33.0596,9.894 L 32.8408,10.3056 L 33.0596,10.8823 L 32.6953,11.8686 L 32.1142,11.5395 L 31.6064,10.9643 L 30.8056,11.5395 L 30.5146,10.2236 L 31.8955,9.3188 L 31.8955,8.8247 L 32.7685,8.249 L 34.1494,7.9194 L 35.0947,8.249 L 36.8388,8.5781 L 36.4033,9.0713 L 35.458,9.0713 L 36.4033,10.0586 L 37.1299,9.2363 L 37.3506,8.8745 C 37.3506,8.8745 40.1377,11.3725 41.7305,14.105 C 43.3233,16.8384 44.0713,20.0601 44.0713,20.7144 z" />
      </g>
    </g>
    <g
       style="fill:#204a87"
       id="g4146">
      <g
         style="fill:#204a87"
         id="g4150">
        <path
           style="fill:#204a87"
           id="path4152"
           d="M 26.0703,9.2363 L 25.9971,9.7295 L 26.5069,10.0586 L 27.378,9.4829 L 26.9425,8.9892 L 26.3605,9.3188 L 26.0705,9.2363" />
      </g>
    </g>
    <g
       style="fill:#204a87"
       id="g4154">
      <g
         style="fill:#204a87"
         id="g4158">
        <path
           style="fill:#204a87"
           id="path4160"
           d="M 26.8701,5.8633 L 24.9795,5.1226 L 22.7998,5.3692 L 20.1094,6.1094 L 19.6006,6.6035 L 21.2725,7.7549 L 21.2725,8.4131 L 20.6182,9.0713 L 21.4912,10.8003 L 22.0713,10.4702 L 22.7998,9.3188 C 23.9228,8.9716 24.9297,8.5781 25.9971,8.0844 L 26.8701,5.8632" />
      </g>
    </g>
    <g
       style="fill:#204a87"
       id="g4162">
      <g
         style="fill:#204a87"
         id="g4166">
        <path
           style="fill:#204a87"
           id="path4168"
           d="M 28.833,12.7749 L 28.542,12.0337 L 28.0322,12.1987 L 28.1787,13.103 L 28.833,12.7749" />
      </g>
    </g>
    <g
       style="fill:#204a87"
       id="g4170">
      <g
         style="fill:#204a87"
         id="g4174">
        <path
           style="fill:#204a87"
           id="path4176"
           d="M 29.123,12.6089 L 28.9775,13.5972 L 29.7773,13.4322 L 30.3584,12.857 L 29.8496,12.3629 C 29.6787,11.9078 29.4824,11.483 29.2685,11.0465 L 28.833,11.0465 L 28.833,11.5397 L 29.123,11.8688 L 29.123,12.609" />
      </g>
    </g>
    <g
       style="fill:#204a87"
       id="g4178">
      <g
         style="fill:#204a87"
         id="g4182">
        <path
           style="fill:#204a87"
           id="path4184"
           d="M 18.3652,28.2422 L 17.7832,27.0899 L 16.6929,26.8433 L 16.1114,25.2808 L 14.6578,25.4449 L 13.4224,24.5406 L 12.1133,25.692 L 12.1133,25.8736 C 11.7173,25.7593 11.2305,25.7437 10.8779,25.5269 L 10.5869,24.7046 L 10.5869,23.7993 L 9.7148,23.8813 C 9.7876,23.3051 9.8598,22.7299 9.9331,22.1538 L 9.4238,22.1538 L 8.9155,22.812 L 8.4062,23.0581 L 7.6791,22.6479 L 7.6063,21.7426 L 7.7518,20.7553 L 8.8426,19.933 L 9.7147,19.933 L 9.8597,19.4389 L 10.95,19.685 L 11.7498,20.6733 L 11.8953,19.0268 L 13.2766,17.8754 L 13.7854,16.641 L 14.803,16.2299 L 15.3845,15.4076 L 16.6926,15.1596 L 17.3474,14.1733 C 16.6931,14.1733 16.0388,14.1733 15.3845,14.1733 L 16.6203,13.5971 L 17.4919,13.5971 L 18.7282,13.185 L 18.8737,12.6928 L 18.4372,12.2807 L 17.9284,12.1157 L 18.0739,11.6225 L 17.7106,10.8823 L 16.838,11.2104 L 16.9835,10.5527 L 15.9659,9.9765 L 15.1666,11.3744 L 15.2389,11.8685 L 14.4396,12.1986 L 13.9303,13.2679 L 13.7125,12.2806 L 12.3312,11.7044 L 12.1129,10.9642 L 13.9303,9.8939 L 14.7301,9.1537 L 14.8029,8.2489 L 14.3669,8.0018 L 13.7854,7.9193 L 13.4221,8.8246 C 13.4221,8.8246 12.8142,8.9437 12.6579,8.9823 C 10.6618,10.8217 6.6286,14.7924 5.6916,22.2885 C 5.7287,22.4623 6.3708,23.4701 6.3708,23.4701 L 7.8972,24.3744 L 9.4236,24.7865 L 10.0784,25.6097 L 11.0955,26.3499 L 11.677,26.2679 L 12.113,26.4642 L 12.113,26.597 L 11.5319,28.16 L 11.0954,28.8182 L 11.2409,29.1483 L 10.8776,30.3807 L 12.1862,32.7674 L 13.4943,33.9197 L 14.0763,34.742 L 14.0031,36.4705 L 14.4396,37.4568 L 14.0031,39.3494 C 14.0031,39.3494 13.9689,39.3377 14.0246,39.5271 C 14.0808,39.7166 16.3537,40.9783 16.4982,40.8709 C 16.6422,40.7615 16.7653,40.6658 16.7653,40.6658 L 16.6203,40.2556 L 17.2014,39.6794 L 17.4197,39.1032 L 18.365,38.7731 L 19.0916,36.9626 L 18.8738,36.4704 L 19.3816,35.7302 L 20.4724,35.4822 L 21.0544,34.1658 L 20.9089,32.5213 L 21.781,31.2869 L 21.9265,30.0525 C 20.7331,29.4607 19.5495,28.8513 18.365,28.242" />
      </g>
    </g>
    <g
       style="fill:#204a87"
       id="g4186">
      <g
         style="fill:#204a87"
         id="g4190">
        <path
           style="fill:#204a87"
           id="path4192"
           d="M 16.7656,9.5649 L 17.4922,10.0586 L 18.0742,10.0586 L 18.0742,9.4829 L 17.3476,9.1538 L 16.7656,9.5649" />
      </g>
    </g>
    <g
       style="fill:#204a87"
       id="g4194">
      <g
         style="fill:#204a87"
         id="g4198">
        <path
           style="fill:#204a87"
           id="path4200"
           d="M 14.876,8.9072 L 14.5122,9.812 L 15.2393,9.812 L 15.6031,8.9892 C 15.9166,8.7675 16.2286,8.5444 16.5479,8.331 L 17.275,8.5781 C 17.7594,8.9072 18.2438,9.2363 18.7286,9.5649 L 19.4561,8.9072 L 18.6558,8.5781 L 18.292,7.8374 L 16.9111,7.6728 L 16.8383,7.2612 L 16.184,7.4262 L 15.8936,8.002 L 15.5298,7.2613 L 15.3848,7.5904 L 15.4576,8.4132 L 14.876,8.9072" />
      </g>
    </g>
    <g
       style="fill:#204a87"
       id="g4202">
      <g
         style="opacity:0.75;fill:#204a87"
         id="g4204">
        <path
           style="fill:#204a87"
           id="path4206"
           d="" />
      </g>
      <g
         style="fill:#204a87"
         id="g4208">
        <path
           style="fill:#204a87"
           id="path4210"
           d="" />
      </g>
    </g>
    <g
       style="fill:#204a87"
       id="g4212">
      <g
         style="opacity:0.75;fill:#204a87"
         id="g4214">
        <path
           style="fill:#204a87"
           id="path4216"
           d="" />
      </g>
      <g
         style="fill:#204a87"
         id="g4218">
        <path
           style="fill:#204a87"
           id="path4220"
           d="" />
      </g>
    </g>
    <g
       style="fill:#204a87"
       id="g4222">
      <g
         style="fill:#204a87"
         id="g4226">
        <path
           style="fill:#204a87"
           id="path4228"
           d="M 17.4922,6.8496 L 17.856,6.521 L 18.5831,6.3564 C 19.0811,6.1142 19.5811,5.9511 20.1095,5.7802 L 19.8195,5.2865 L 18.881,5.4213 L 18.4376,5.8632 L 17.7066,5.9692 L 17.0567,6.2744 L 16.7408,6.4272 L 16.5479,6.6855 L 17.4922,6.8496" />
      </g>
    </g>
    <g
       style="fill:#204a87"
       id="g4230">
      <g
         style="fill:#204a87"
         id="g4234">
        <path
           style="fill:#204a87"
           id="path4236"
           d="M 18.7285,14.6665 L 19.165,14.0083 L 18.5102,13.5151 L 18.7285,14.6665" />
      </g>
    </g>
  </g>
  <path
     style="opacity:0.39560439;fill:none;fill-opacity:1;fill-rule:nonzero;stroke:url(#radialGradient3167);stroke-miterlimit:4;stroke-opacity:1"
     id="path4122"
     d="M 42.975093,23.485534 C 42.975093,33.651354 34.733915,41.89244 24.569493,41.89244 C 14.404139,41.89244 6.1634261,33.651261 6.1634261,23.485534 C 6.1634261,13.32018 14.404139,5.079934 24.569493,5.079934 C 34.733915,5.079934 42.975093,13.32018 42.975093,23.485534 L 42.975093,23.485534 z" />
  <path
     style="fill:none;fill-opacity:1;fill-rule:evenodd;stroke:url(#linearGradient3164);stroke-width:1;stroke-linecap:round;stroke-linejoin:round;marker:none;marker-start:none;marker-mid:none;marker-end:none;stroke-miterlimit:4;stroke-dasharray:none;stroke-dashoffset:0;stroke-opacity:1;visibility:visible;display:inline;overflow:visible"
     id="path5991"
     d="M 40.864053,32.808804 C 38.37599,37.401988 28.390378,36.806393 18.561677,31.478571 C 8.7329757,26.15075 2.7838754,18.108652 5.2746526,13.51694 C 7.7627152,8.9237561 17.748328,9.5193513 27.577029,14.847173 C 37.40573,20.174994 43.35483,28.217092 40.864053,32.808804 L 40.864053,32.808804 z" />
  <path
     style="fill:none;fill-opacity:1;fill-rule:evenodd;stroke:url(#linearGradient3161);stroke-width:0.99999994;stroke-linecap:round;stroke-linejoin:round;marker:none;marker-start:none;marker-mid:none;marker-end:none;stroke-miterlimit:4;stroke-dasharray:none;stroke-dashoffset:0;stroke-opacity:1;visibility:visible;display:inline;overflow:visible"
     id="path6009"
     d="M 44.035084,13.397961 C 47.605651,17.210944 43.882611,26.495668 35.719855,34.134938 C 27.557099,41.774207 18.046329,44.874595 14.478016,41.059502 C 10.907449,37.246519 14.63049,27.961795 22.793246,20.322525 C 30.956002,12.683256 40.466771,9.5828681 44.035084,13.397961 L 44.035084,13.397961 z" />
  <g
     id="g4933"
     transform="matrix(-1.045772,0.767251,0.767251,1.045772,35.61651,-22.14396)">
    <path
       style="opacity:1;fill:url(#radialGradient5987);fill-opacity:1;fill-rule:evenodd;stroke:none;stroke-width:1;stroke-linecap:round;stroke-linejoin:round;marker:none;marker-start:none;marker-mid:none;marker-end:none;stroke-miterlimit:4;stroke-dasharray:none;stroke-dashoffset:0;stroke-opacity:1;visibility:visible;display:inline;overflow:visible"
       id="path4935"
       transform="translate(14.95026,22.93047)"
       d="M 18.788838,12.493138 C 18.788838,16.203119 15.781304,19.210653 12.071323,19.210653 C 8.3613426,19.210653 5.3538089,16.203119 5.3538089,12.493138 C 5.3538089,8.7831571 8.3613426,5.7756234 12.071323,5.7756234 C 15.781304,5.7756234 18.788838,8.7831571 18.788838,12.493138 L 18.788838,12.493138 z" />
    <path
       style="opacity:1;fill:#ffffff;fill-opacity:1;fill-rule:evenodd;stroke:none;stroke-width:1;stroke-linecap:round;stroke-linejoin:round;marker:none;marker-start:none;marker-mid:none;marker-end:none;stroke-miterlimit:4;stroke-dasharray:none;stroke-dashoffset:0;stroke-opacity:1;visibility:visible;display:inline;overflow:visible"
       id="path4937"
       transform="matrix(0.308271,0,0,0.308271,23.30035,31.57234)"
       d="M 18.788838,12.493138 C 18.788838,16.203119 15.781304,19.210653 12.071323,19.210653 C 8.3613426,19.210653 5.3538089,16.203119 5.3538089,12.493138 C 5.3538089,8.7831571 8.3613426,5.7756234 12.071323,5.7756234 C 15.781304,5.7756234 18.788838,8.7831571 18.788838,12.493138 L 18.788838,12.493138 z" />
  </g>
  <path
     style="fill:none;fill-opacity:1;fill-rule:evenodd;stroke:url(#linearGradient3155);stroke-width:0.99999982;stroke-linecap:round;stroke-linejoin:round;marker:none;marker-start:none;marker-mid:none;marker-end:none;stroke-miterlimit:4;stroke-dasharray:none;stroke-dashoffset:0;stroke-opacity:1;visibility:visible;display:inline;overflow:visible"
     id="path6013"
     d="M 3.2795392,19.940569 C 3.7902578,14.741824 13.224505,11.415854 24.350469,12.512177 C 35.476433,13.608501 44.080076,18.711878 43.566285,23.91032 C 43.055566,29.109065 33.621319,32.435035 22.495355,31.338712 C 11.369391,30.242388 2.765748,25.139011 3.2795392,19.940569 L 3.2795392,19.940569 z" />
  <path
     style="fill:none;fill-opacity:1;fill-rule:evenodd;stroke:url(#linearGradient3152);stroke-width:0.99999928;stroke-linecap:round;stroke-linejoin:round;marker:none;marker-start:none;marker-mid:none;marker-end:none;stroke-miterlimit:4;stroke-dasharray:none;stroke-dashoffset:0;stroke-opacity:1;visibility:visible;display:inline;overflow:visible"
     id="path6017"
     d="M 39.086495,10.532241 C 42.575514,14.258022 38.937496,23.330417 30.961158,30.794991 C 22.98482,38.259565 13.691257,41.289059 10.204441,37.561216 C 6.7154216,33.835436 10.353441,24.763041 18.329779,17.298466 C 26.306116,9.8338923 35.599679,6.804399 39.086495,10.532241 L 39.086495,10.532241 z" />
  <g
     id="g5075"
     transform="matrix(-0.806276,0.59154,0.59154,0.806276,12.38564,-18.02921)">
    <path
       style="opacity:1;fill:url(#radialGradient5983);fill-opacity:1;fill-rule:evenodd;stroke:none;stroke-width:1;stroke-linecap:round;stroke-linejoin:round;marker:none;marker-start:none;marker-mid:none;marker-end:none;stroke-miterlimit:4;stroke-dasharray:none;stroke-dashoffset:0;stroke-opacity:1;visibility:visible;display:inline;overflow:visible"
       id="path5077"
       transform="translate(14.95026,22.93047)"
       d="M 18.788838,12.493138 C 18.788838,16.203119 15.781304,19.210653 12.071323,19.210653 C 8.3613426,19.210653 5.3538089,16.203119 5.3538089,12.493138 C 5.3538089,8.7831571 8.3613426,5.7756234 12.071323,5.7756234 C 15.781304,5.7756234 18.788838,8.7831571 18.788838,12.493138 L 18.788838,12.493138 z" />
    <path
       style="opacity:1;fill:#ffffff;fill-opacity:1;fill-rule:evenodd;stroke:none;stroke-width:1;stroke-linecap:round;stroke-linejoin:round;marker:none;marker-start:none;marker-mid:none;marker-end:none;stroke-miterlimit:4;stroke-dasharray:none;stroke-dashoffset:0;stroke-opacity:1;visibility:visible;display:inline;overflow:visible"
       id="path5079"
       transform="matrix(0.308271,0,0,0.308271,23.30035,31.57234)"
       d="M 18.788838,12.493138 C 18.788838,16.203119 15.781304,19.210653 12.071323,19.210653 C 8.3613426,19.210653 5.3538089,16.203119 5.3538089,12.493138 C 5.3538089,8.7831571 8.3613426,5.7756234 12.071323,5.7756234 C 15.781304,5.7756234 18.788838,8.7831571 18.788838,12.493138 L 18.788838,12.493138 z" />
  </g>
  <g
     id="g4945"
     transform="matrix(-0.806276,0.59154,0.59154,0.806276,13.4991,-31.50022)">
    <path
       style="opacity:1;fill:url(#radialGradient5985);fill-opacity:1;fill-rule:evenodd;stroke:none;stroke-width:1;stroke-linecap:round;stroke-linejoin:round;marker:none;marker-start:none;marker-mid:none;marker-end:none;stroke-miterlimit:4;stroke-dasharray:none;stroke-dashoffset:0;stroke-opacity:1;visibility:visible;display:inline;overflow:visible"
       id="path4947"
       transform="translate(14.95026,22.93047)"
       d="M 18.788838,12.493138 C 18.788838,16.203119 15.781304,19.210653 12.071323,19.210653 C 8.3613426,19.210653 5.3538089,16.203119 5.3538089,12.493138 C 5.3538089,8.7831571 8.3613426,5.7756234 12.071323,5.7756234 C 15.781304,5.7756234 18.788838,8.7831571 18.788838,12.493138 L 18.788838,12.493138 z" />
    <path
       style="opacity:1;fill:#ffffff;fill-opacity:1;fill-rule:evenodd;stroke:none;stroke-width:1;stroke-linecap:round;stroke-linejoin:round;marker:none;marker-start:none;marker-mid:none;marker-end:none;stroke-miterlimit:4;stroke-dasharray:none;stroke-dashoffset:0;stroke-opacity:1;visibility:visible;display:inline;overflow:visible"
       id="path4949"
       transform="matrix(0.308271,0,0,0.308271,23.30035,31.57234)"
       d="M 18.788838,12.493138 C 18.788838,16.203119 15.781304,19.210653 12.071323,19.210653 C 8.3613426,19.210653 5.3538089,16.203119 5.3538089,12.493138 C 5.3538089,8.7831571 8.3613426,5.7756234 12.071323,5.7756234 C 15.781304,5.7756234 18.788838,8.7831571 18.788838,12.493138 L 18.788838,12.493138 z" />
  </g>
  <g
     id="g4939"
     transform="matrix(-0.870227,0.638572,0.638458,0.870381,25.20503,-35.31278)">
    <path
       style="opacity:1;fill:url(#radialGradient5989);fill-opacity:1;fill-rule:evenodd;stroke:none;stroke-width:1;stroke-linecap:round;stroke-linejoin:round;marker:none;marker-start:none;marker-mid:none;marker-end:none;stroke-miterlimit:4;stroke-dasharray:none;stroke-dashoffset:0;stroke-opacity:1;visibility:visible;display:inline;overflow:visible"
       id="path4941"
       transform="translate(14.95026,22.93047)"
       d="M 18.788838,12.493138 C 18.788838,16.203119 15.781304,19.210653 12.071323,19.210653 C 8.3613426,19.210653 5.3538089,16.203119 5.3538089,12.493138 C 5.3538089,8.7831571 8.3613426,5.7756234 12.071323,5.7756234 C 15.781304,5.7756234 18.788838,8.7831571 18.788838,12.493138 L 18.788838,12.493138 z" />
    <path
       style="opacity:1;fill:#ffffff;fill-opacity:1;fill-rule:evenodd;stroke:none;stroke-width:1;stroke-linecap:round;stroke-linejoin:round;marker:none;marker-start:none;marker-mid:none;marker-end:none;stroke-miterlimit:4;stroke-dasharray:none;stroke-dashoffset:0;stroke-opacity:1;visibility:visible;display:inline;overflow:visible"
       id="path4943"
       transform="matrix(0.308271,0,0,0.308271,23.30035,31.57234)"
       d="M 18.788838,12.493138 C 18.788838,16.203119 15.781304,19.210653 12.071323,19.210653 C 8.3613426,19.210653 5.3538089,16.203119 5.3538089,12.493138 C 5.3538089,8.7831571 8.3613426,5.7756234 12.071323,5.7756234 C 15.781304,5.7756234 18.788838,8.7831571 18.788838,12.493138 L 18.788838,12.493138 z" />
  </g>
  <path
     style="font-size:59.90107727px;font-style:normal;font-variant:normal;font-weight:bold;font-stretch:normal;text-align:start;line-height:125%;writing-mode:lr-tb;text-anchor:start;fill:#00ff00;fill-opacity:1;stroke:#008000;stroke-width:0.62518835px;stroke-linecap:butt;stroke-linejoin:miter;stroke-opacity:1;font-family:Bitstream Vera Sans"
     id="path29821"
     d="M 37.874311,44.141777 L 37.874311,38.385246 L 43.990289,38.359624 L 43.990289,33.898675 L 37.879784,33.898675 L 37.874311,27.547032 L 33.573913,27.554149 L 33.576649,33.887288 L 27.453832,33.934261 L 27.431942,38.378129 L 33.582122,38.359624 L 33.586226,44.124696 L 37.874311,44.141777 z" />
  <path
     style="font-size:59.90107727px;font-style:normal;font-variant:normal;font-weight:bold;font-stretch:normal;text-align:start;line-height:125%;writing-mode:lr-tb;text-anchor:start;opacity:0.40860213;fill:#008000;fill-opacity:1;stroke:url(#linearGradient3136);stroke-width:0.62518847px;stroke-linecap:butt;stroke-linejoin:miter;stroke-opacity:1;font-family:Bitstream Vera Sans"
     id="path29823"
     d="M 37.251799,43.498486 L 37.251799,37.737349 L 43.382569,37.737349 L 43.378463,34.533248 L 37.257271,34.533248 L 37.257271,28.15941 L 34.195849,28.170798 L 34.201322,34.533248 L 28.056095,34.544636 L 28.039677,37.715997 L 34.20832,37.721691 L 34.200112,43.478557 L 37.251799,43.498486 z" />
  <path
     style="opacity:0.31182796;fill:#ffffff;fill-opacity:1;fill-rule:evenodd;stroke:none;stroke-width:1px;stroke-linecap:butt;stroke-linejoin:miter;stroke-opacity:1"
     id="path29825"
     d="M 27.752372,36.143255 C 27.752372,37.378807 43.678651,35.525479 43.678651,36.123327 L 43.678651,34.210214 L 37.559053,34.230142 L 37.559053,27.875273 L 33.881548,27.875273 L 33.881548,34.230142 L 27.752372,34.230142 L 27.752372,36.143255 z" />
</svg>
